<svg xmlns="http://www.w3.org/2000/svg" viewBox="0 0 512 512">
  <defs>
    <linearGradient id="bgGradMask" x1="0%" y1="0%" x2="100%" y2="100%">
      <stop offset="0%" stop-color="#0B0F17" />
      <stop offset="50%" stop-color="#151E2E" />
      <stop offset="100%" stop-color="#07090E" />
    </linearGradient>
    <linearGradient id="brainGradMask" x1="0%" y1="0%" x2="100%" y2="100%">
      <stop offset="0%" stop-color="#a78bfa" />
      <stop offset="50%" stop-color="#8b5cf6" />
      <stop offset="100%" stop-color="#0ea5e9" />
    </linearGradient>
    <linearGradient id="accentGradMask" x1="0%" y1="0%" x2="100%" y2="100%">
      <stop offset="0%" stop-color="#f43f5e" />
      <stop offset="100%" stop-color="#fb7185" />
    </linearGradient>
  </defs>

  <!-- Full bleed background for Android adaptive/maskable safe-zone -->
  <rect width="512" height="512" fill="url(#bgGradMask)" />

  <!-- Brain symbol inside the 80% safe center area -->
  <g transform="translate(136, 136) scale(10)" stroke="url(#brainGradMask)" stroke-width="2.2" fill="none" stroke-linecap="round" stroke-linejoin="round">
    <path d="M12 5a3 3 0 1 0-5.997.125 4 4 0 0 0-2.526 5.77 4 4 0 0 0 .556 6.588A4 4 0 1 0 12 18Z"/>
    <path d="M12 5a3 3 0 1 1 5.997.125 4 4 0 0 1 2.526 5.77 4 4 0 0 1-.556 6.588A4 4 0 1 1 12 18Z"/>
    <path d="M15 13a4.5 4.5 0 0 1-3-4 4.5 4.5 0 0 1-3 4"/>
    <path d="M17.599 6.5a3 3 0 0 0 .399-1.375"/>
    <path d="M6.003 5.125A3 3 0 0 0 6.401 6.5"/>
    <path d="M3.477 10.896a4 4 0 0 1 .585-.396"/>
    <path d="M19.938 10.5a4 4 0 0 1 .585.396"/>
    <path d="M6 18a4 4 0 0 1-1.967-.516"/>
    <path d="M19.967 17.484A4 4 0 0 1 18 18"/>
  </g>

  <!-- Heart charm -->
  <g transform="translate(256, 256) scale(1.8)">
    <path d="M12 21.35l-1.45-1.32C5.4 15.36 2 12.28 2 8.5 2 5.42 4.42 3 7.5 3c1.74 0 3.41.81 4.5 2.09C13.09 3.81 14.76 3 16.5 3 19.58 3 22 5.42 22 8.5c0 3.78-3.4 6.86-8.55 11.54L12 21.35z" fill="url(#accentGradMask)" />
  </g>
</svg>
